<svg width="128" height="121" viewBox="0 0 128 121" fill="none" xmlns="http://www.w3.org/2000/svg">
<path d="M34.9798 8.83176C13.9082 16.8787 6.2811 42.9665 16.4937 72.1693C18.6913 78.529 18.9499 78.7886 46.3558 96.8294C61.4808 106.823 74.4082 115 74.9253 115C75.5716 115 78.0278 112.664 80.6133 109.679C92.3772 95.9209 93.4113 82.0333 83.5866 71.2608C82.1646 69.5735 81.2597 67.8862 81.7767 67.4969C83.5866 65.55 90.6966 70.3522 95.2212 76.3226C98.8408 81.3844 100.134 82.4227 101.038 80.8652C102.46 78.2694 115 50.2348 115 49.5858C115 49.3262 111.251 45.9517 106.597 42.1878C101.297 37.7749 98.1945 34.1408 98.1945 32.4535C98.1945 30.5067 96.1261 28.8194 90.3088 26.0938C85.3964 23.6278 81.7767 20.9022 80.6133 18.6958C78.4156 14.4127 71.952 9.48071 66.0054 7.40407C58.7661 5.06785 42.9947 5.7168 34.9798 8.83176ZM67.1689 14.0234C70.4007 15.7106 74.2789 19.0852 75.9594 21.5512C77.7693 24.2768 81.7767 27.5215 86.0428 29.728C90.8259 32.194 93.0235 34.011 93.0235 35.8281C93.0235 37.126 94.0577 39.0728 95.3505 39.9814C96.6432 40.8899 100.134 43.7453 103.236 46.3411L108.666 51.0135L104.141 61.0073C101.685 66.4585 98.8408 72.1693 98.8408 72.1693L96.2554 69.5735C96.2554 69.5735 87.3355 61.7861 83.1988 61.7861C81.0011 61.7861 76.9936 62.6946 74.5374 63.7329C64.5834 67.8862 55.9221 64.7713 52.1731 55.9455C50.3633 51.5327 51.139 46.6007 54.2415 41.4091C55.6635 39.2026 55.5343 38.2941 53.8537 35.6983C52.561 34.011 51.6561 31.545 51.6561 30.2471C51.6561 28.1705 52.3024 27.9109 55.2757 28.6896C61.093 30.2471 62.515 30.1173 63.0321 27.9109C63.2907 26.4832 61.3516 25.0555 56.1806 23.2385C49.3291 20.6427 48.9413 20.6427 47.7778 22.8491C46.0973 25.964 46.0973 34.011 47.7778 36.9962C48.5535 38.6835 48.4242 41.0197 46.8729 44.6538C44.2875 51.5327 45.4509 57.8924 50.3633 63.6031C55.405 69.3139 60.5759 71.3906 68.4616 70.6118C74.6667 69.9629 75.1838 70.2224 79.4498 74.8949C87.077 83.461 86.5599 93.8442 77.7693 104.357L74.2789 108.51L48.2949 91.3782L22.1817 74.2459L19.9841 64.901C13.6497 37.6451 20.2426 19.9937 39.6336 12.985C47.6486 10.1297 60.4466 10.6488 67.1689 14.0234Z" fill="black"/>
</svg>
